<?xml version="1.0" encoding="utf-8"?>
<!-- Generator: Adobe Illustrator 23.1.1, SVG Export Plug-In . SVG Version: 6.00 Build 0)  -->
<svg version="1.1" id="Layer_1" xmlns="http://www.w3.org/2000/svg" xmlns:xlink="http://www.w3.org/1999/xlink" x="0px" y="0px"
	 viewBox="0 0 1281 103" style="enable-background:new 0 0 1281 103;" xml:space="preserve">
<style type="text/css">
	.st0{fill:#808080;}
	.st1{fill-rule:evenodd;clip-rule:evenodd;fill:#808080;}
	.st2{fill:#4285F4;}
	.st3{fill:#34A853;}
	.st4{fill:#FBBC05;}
	.st5{fill:#EB4335;}
	.st6{fill:#69B40F;}
	.st7{fill:#706D6E;}
	.st8{fill:#F1511B;}
	.st9{fill:#80CC28;}
	.st10{fill:#00ADEF;}
	.st11{fill:#FBBC09;}
	.st12{fill-rule:evenodd;clip-rule:evenodd;}
	.st13{fill:#222C37;}
	.st14{fill:#77B900;}
</style>
<g>
	<path class="st0" d="M314.2,52.5c0-1.8-0.1-3.2-0.3-4.6l-20.3-0.5l-0.2,8.3l11.9,0.3c-0.3,2.1-1.7,5.1-4.6,7.2l0,0.3l6.3,5.3
		l0.4,0.1C311.6,65,314,59.3,314.2,52.5"/>
	<path class="st0" d="M293,73.9c5.8,0.1,10.8-1.7,14.4-5.1l-6.7-5.6c-1.9,1.3-4.3,2.1-7.5,2.1c-5.7-0.1-10.5-4.2-12.1-9.6l-0.3,0
		l-6.8,5.2l-0.1,0.2C277.3,68.5,284.5,73.7,293,73.9"/>
	<path class="st0" d="M281.1,55.7c-0.4-1.4-0.7-2.9-0.6-4.5c0-1.5,0.3-3,0.8-4.4l0-0.3l-6.6-5.6l-0.2,0.1c-1.5,3-2.5,6.4-2.5,10
		c-0.1,3.6,0.7,7,2.1,10.1L281.1,55.7"/>
	<path class="st0" d="M293.8,37.8c4.1,0.1,6.7,2,8.3,3.5l6.2-6c-3.7-3.7-8.5-6-14.3-6.2c-8.4-0.2-15.9,4.7-19.6,11.9l6.9,5.8
		C283.1,41.4,288.1,37.6,293.8,37.8"/>
</g>
<g>
	<g>
		<path class="st0" d="M508.4,63.5c-5.4,0-10.4,0.1-11.8,0c-2.9-0.3-4.8-2.2-5-5.1c-0.2-1.9-0.2-3.4,0-4.9c0.3-2.8,2.5-5.4,5-5.6
			c0.9-0.1,3.3,0,7.6,0l12.6,0v-5.4c0,0-10.1,0-13.1,0c-4.1,0-6.1,0-7.4,0c-2.8,0.1-5.2,1.2-7.1,3.1c-1.8,1.8-2.8,4.8-3,7.8
			c-0.1,1.6-0.1,3.7,0,4.9c0.3,3.2,1.3,5.7,3,7.5c1.8,1.9,4.5,3.1,7.1,3.1c2.1,0,20.5,0,20.5,0v-5.4
			C516.8,63.5,511.2,63.5,508.4,63.5L508.4,63.5z M451.4,42.8v5.4h12.5v20.6h5.3V48.3h12.4v-5.4H451.4z M446,53.1c0-2.9-1-5.4-3-7.5
			c-2-2.1-5.1-3-7.1-3.1c-1.7-0.1-8.6-0.1-10.2,0c-2.3,0.1-3.9,0.8-4.8,1.4c0,0,0,0,0,0v-9.9h-5.3v34.8h5.3c0,0-0.1-14.2,0-15.8
			c0.2-2.8,2.2-4.9,4.8-5.2c2.1-0.2,8.3-0.1,10.2,0c2.7,0.2,4.6,2.4,4.8,5.3c0.1,1.1,0,15.7,0,15.7h5.3C446,68.9,446,54.3,446,53.1
			L446,53.1z"/>
	</g>
</g>
<g>
	<path class="st0" d="M1027.9,50.4v-1.8h-2.2v-2.9l-0.1,0l-2.1,0.7l-0.1,0v2.2h-3.3v-1.2c0-0.6,0.1-1,0.4-1.3c0.2-0.3,0.6-0.4,1-0.4
		c0.3,0,0.6,0.1,1,0.2l0.1,0v-2l0,0c-0.3-0.1-0.7-0.2-1.2-0.2c-0.6,0-1.2,0.1-1.7,0.4c-0.5,0.3-0.9,0.7-1.2,1.2
		c-0.3,0.5-0.4,1.1-0.4,1.8v1.3h-1.5v1.9h1.5v7.8h2.2v-7.8h3.2v4.9c0,2,0.9,3.1,2.8,3.1c0.3,0,0.6,0,0.9-0.1
		c0.3-0.1,0.6-0.1,0.7-0.2l0,0v-1.9l-0.1,0.1c-0.1,0.1-0.3,0.2-0.4,0.2c-0.2,0.1-0.3,0.1-0.4,0.1c-0.4,0-0.7-0.1-0.9-0.4
		c-0.2-0.2-0.3-0.7-0.3-1.2v-4.6H1027.9L1027.9,50.4z M1011.5,56.6c-0.8,0-1.4-0.3-1.9-0.8c-0.4-0.5-0.7-1.3-0.7-2.3
		c0-1,0.2-1.8,0.7-2.4c0.4-0.6,1.1-0.8,1.9-0.8c0.8,0,1.4,0.3,1.8,0.8c0.4,0.5,0.7,1.3,0.7,2.4c0,1-0.2,1.8-0.6,2.4
		C1013,56.3,1012.3,56.6,1011.5,56.6 M1011.6,48.3c-1.5,0-2.7,0.5-3.6,1.4c-0.9,0.9-1.3,2.2-1.3,3.8c0,1.5,0.4,2.7,1.3,3.6
		c0.8,0.9,2,1.3,3.4,1.3c1.5,0,2.7-0.5,3.5-1.4c0.9-0.9,1.3-2.2,1.3-3.7c0-1.5-0.4-2.8-1.2-3.6C1014.2,48.8,1013.1,48.3,1011.6,48.3
		 M1003.1,48.4c-1,0-1.9,0.3-2.6,0.8c-0.7,0.5-1,1.3-1,2.1c0,0.5,0.1,0.9,0.2,1.2c0.1,0.3,0.4,0.6,0.7,0.9c0.3,0.3,0.7,0.5,1.3,0.8
		c0.5,0.2,0.9,0.4,1.1,0.5c0.2,0.1,0.4,0.3,0.5,0.4c0.1,0.1,0.1,0.3,0.1,0.5c0,0.6-0.5,1-1.4,1c-0.4,0-0.8-0.1-1.2-0.2
		c-0.4-0.1-0.9-0.4-1.2-0.7l-0.1-0.1v2.2l0,0c0.3,0.1,0.7,0.3,1.2,0.4c0.5,0.1,0.9,0.1,1.2,0.1c1.1,0,2-0.3,2.7-0.8
		c0.7-0.6,1-1.3,1-2.2c0-0.6-0.2-1.2-0.5-1.7c-0.4-0.4-1-0.9-1.8-1.2c-0.7-0.3-1.1-0.5-1.3-0.7c-0.2-0.2-0.3-0.4-0.3-0.7
		c0-0.3,0.1-0.5,0.3-0.7c0.2-0.2,0.5-0.3,0.9-0.3c0.4,0,0.7,0.1,1.1,0.2c0.4,0.1,0.7,0.3,1,0.5l0.1,0.1v-2.1l0,0
		c-0.3-0.1-0.6-0.2-1-0.3C1003.8,48.4,1003.5,48.4,1003.1,48.4 M993.8,56.6c-0.8,0-1.4-0.3-1.9-0.8c-0.4-0.5-0.7-1.3-0.7-2.3
		c0-1,0.2-1.8,0.7-2.4c0.4-0.6,1.1-0.8,1.9-0.8c0.8,0,1.4,0.3,1.8,0.8c0.4,0.5,0.7,1.3,0.7,2.4c0,1-0.2,1.8-0.6,2.4
		C995.3,56.3,994.6,56.6,993.8,56.6 M993.9,48.3c-1.5,0-2.7,0.5-3.6,1.4c-0.9,0.9-1.3,2.2-1.3,3.8c0,1.5,0.4,2.7,1.3,3.6
		c0.8,0.9,2,1.3,3.4,1.3c1.5,0,2.7-0.5,3.5-1.4c0.9-0.9,1.3-2.2,1.3-3.7c0-1.5-0.4-2.8-1.2-3.6C996.5,48.8,995.4,48.3,993.9,48.3
		 M985.7,50.2v-1.6h-2.2v9.6h2.2v-4.9c0-0.8,0.2-1.5,0.5-2.1c0.4-0.5,0.8-0.8,1.4-0.8c0.2,0,0.4,0,0.7,0.1c0.2,0.1,0.4,0.1,0.5,0.2
		l0.1,0.1v-2.3l0,0c-0.2-0.1-0.5-0.1-0.9-0.1c-0.5,0-1,0.2-1.5,0.5C986.2,49.3,985.9,49.7,985.7,50.2L985.7,50.2z M979.6,48.3
		c-1,0-1.9,0.2-2.7,0.7c-0.8,0.4-1.3,1.1-1.8,1.9c-0.4,0.8-0.6,1.7-0.6,2.8c0,0.9,0.2,1.7,0.6,2.5c0.4,0.7,0.9,1.3,1.6,1.7
		c0.7,0.4,1.5,0.6,2.4,0.6c1,0,1.9-0.2,2.6-0.6l0,0v-2.1l-0.1,0.1c-0.3,0.2-0.7,0.4-1.1,0.6c-0.4,0.1-0.7,0.2-1,0.2
		c-0.9,0-1.5-0.3-2-0.8c-0.5-0.5-0.8-1.3-0.8-2.3c0-1,0.3-1.8,0.8-2.4c0.5-0.6,1.2-0.9,2-0.9c0.7,0,1.4,0.3,2.1,0.7l0.1,0.1v-2.2
		l0,0c-0.2-0.1-0.6-0.3-1-0.4C980.4,48.4,980,48.3,979.6,48.3 M973.1,48.6h-2.2v9.6h2.2V48.6L973.1,48.6z M972,44.5
		c-0.4,0-0.7,0.1-0.9,0.4c-0.3,0.3-0.4,0.6-0.4,0.9c0,0.4,0.1,0.7,0.4,0.9c0.3,0.2,0.6,0.4,0.9,0.4c0.4,0,0.7-0.1,0.9-0.4
		c0.3-0.2,0.4-0.6,0.4-0.9c0-0.4-0.1-0.7-0.4-0.9C972.7,44.6,972.4,44.5,972,44.5 M966.6,47.9v10.3h2.2V44.8h-3.1l-3.9,10l-3.8-10
		h-3.2v13.4h2.1V47.9h0.1l4,10.3h1.6L966.6,47.9L966.6,47.9L966.6,47.9z"/>
	<path class="st0" d="M937,51h-10.3V40.3H937V51z"/>
	<path class="st0" d="M948.3,51H938V40.3h10.3V51L948.3,51z"/>
	<path class="st0" d="M937,62.7h-10.3V52H937V62.7z"/>
	<path class="st0" d="M948.3,62.7H938V52h10.3V62.7L948.3,62.7z"/>
</g>
<g>
	<path class="st0" d="M775.7,40.2c-3.4,0.4-6.3,2.2-8.1,5.1c-0.7,1.1-1.3,2.6-1.6,4c-0.2,0.9-0.2,3.4,0,4.3c0.7,3.5,2.8,6.4,5.9,8
		c1.3,0.7,2.4,1,3.9,1.2c0.4,0,3.3,0.1,8.2,0.1c6.4,0,7.7,0,8.3-0.1c2.7-0.4,4.8-1.5,6.6-3.4c0.8-0.9,1.3-1.6,1.9-2.7
		c0.8-1.7,1.2-3.2,1.2-5.2c0-2-0.3-3.5-1.2-5.2c-0.5-1-1-1.8-1.9-2.7c-1.8-1.9-4-3.1-6.6-3.4c-0.6-0.1-1.9-0.1-8.4-0.1
		C779.6,40.1,776,40.2,775.7,40.2L775.7,40.2z M791.9,47.9c1.3,0.4,2.4,1.4,2.7,2.7c0.1,0.5,0.1,1.4,0,1.9c-0.3,1.3-1.4,2.3-2.7,2.7
		c-0.4,0.1-1,0.1-7.9,0.1c-7,0-7.5,0-7.9-0.1c-1.3-0.4-2.2-1.2-2.6-2.4c-0.2-0.4-0.2-0.5-0.2-1.3c0-0.7,0-0.8,0.2-1.3
		c0.5-1.3,1.6-2.2,3-2.4c0.2,0,3.7-0.1,7.7,0C790.9,47.8,791.5,47.8,791.9,47.9L791.9,47.9z M843.7,49v7.5h2.3v-15h-2.3V49z
		 M862.2,46.4c-1,0.2-1.9,0.9-2.3,1.8c-0.2,0.5-0.2,0.5-0.2,1.2c0,0.6,0,0.7,0.2,1.1c0.4,0.8,1.2,1.4,2.6,1.7c1.8,0.5,2.2,0.6,2.4,1
		c0.4,0.7-0.2,1.4-1.4,1.4c-0.9,0.1-1.9-0.2-2.7-0.8c-0.2-0.1-0.4-0.3-0.4-0.3c-0.1,0-0.3,0.2-0.7,0.7c-0.3,0.4-0.6,0.8-0.6,0.9
		c-0.1,0.2,1.6,1.2,2.5,1.4c0.7,0.2,2.3,0.2,3,0c1-0.3,1.8-0.9,2.2-1.8c0.2-0.5,0.2-0.5,0.2-1.3c0-0.7,0-0.8-0.2-1.2
		c-0.4-1-1.3-1.5-3.1-2c-0.6-0.2-1.2-0.4-1.4-0.4c-0.5-0.3-0.7-0.8-0.3-1.2c0.3-0.3,0.7-0.4,1.3-0.4c0.6,0,1,0.1,1.7,0.4
		c0.3,0.2,0.6,0.2,0.6,0.2c0.2-0.2,1-1.5,1-1.5c0-0.1-0.7-0.5-1.2-0.7C864.5,46.3,863.2,46.2,862.2,46.4L862.2,46.4z M826.1,46.6
		c-1.9,0.4-3.1,1.7-3.6,3.6c-0.1,0.4-0.1,0.7-0.1,1.4c0,1,0.1,1.5,0.5,2.4c0.5,1,1.1,1.7,2.1,2.2c0.8,0.4,1.2,0.5,2.3,0.5
		c1.1,0,1.5-0.1,2.3-0.5c0.6-0.3,1.3-0.8,1.3-1c0,0-0.3-0.4-0.8-0.9l-0.8-0.8l-0.4,0.3c-1.2,0.9-3,0.6-3.8-0.5
		c-0.3-0.5-0.5-1-0.5-1.6c0-1.3,0.6-2.2,1.7-2.6c0.8-0.3,1.8-0.1,2.5,0.3c0.1,0.1,0.2,0.1,0.3,0.1c0.1,0,1.4-1.7,1.4-1.8
		c0-0.2-1.2-0.8-1.8-1C828,46.5,826.6,46.5,826.1,46.6L826.1,46.6z M814.7,46.7c-0.3,0.1-0.7,0.3-1,0.4c-0.5,0.2-0.7,0.4-1.1,0.9
		c-0.4,0.4-0.7,0.8-0.8,1c-0.8,1.7-0.8,3.6,0,5.2c0.1,0.3,0.4,0.6,0.8,1c0.5,0.5,0.7,0.7,1.1,0.9c0.8,0.4,1.4,0.5,2.3,0.5
		c0.9,0,1.5-0.1,2.2-0.5c1-0.5,1.6-1.2,2.1-2.2c0.4-0.8,0.5-1.4,0.5-2.4s-0.1-1.5-0.5-2.4c-0.5-1-1.2-1.7-2.1-2.2
		c-0.3-0.2-0.8-0.3-1-0.4C816.4,46.6,815.3,46.6,814.7,46.7L814.7,46.7z M817.1,49.2c1.9,0.9,1.9,4,0,5c-0.4,0.2-0.5,0.2-1.1,0.2
		c-0.7,0-0.7,0-1.1-0.2c-1.3-0.7-1.8-2.4-1.2-3.8C814.3,49.1,815.8,48.6,817.1,49.2z M832.2,50c0,2.7,0,3.2,0.1,3.6
		c0.4,1.6,1.4,2.7,2.9,3c0.7,0.2,1.8,0.1,2.4-0.1c0.5-0.2,0.9-0.4,1.2-0.6c0.1-0.1,0.2-0.2,0.3-0.1c0,0,0.1,0.2,0.1,0.4v0.4h2v-9.7
		h-2.2v2.6c0,1.5,0,2.8-0.1,3.1c-0.2,1.3-1,2-2.3,2c-0.4,0-0.6,0-0.9-0.2c-0.7-0.4-1.1-1-1.2-2.1c0-0.3-0.1-1.7-0.1-3v-2.4h-2.3
		L832.2,50L832.2,50z M848.3,49.7c0,1.7,0.1,3.2,0.1,3.4c0.3,1.8,1.3,3,2.9,3.4c1.2,0.3,2.8,0,3.7-0.7l0.3-0.2l0,0.4l0,0.4h2v-9.7
		h-2.3v2.4c0,3.4-0.1,4-0.6,4.6c-0.6,0.6-1.4,0.9-2.2,0.7c-0.7-0.2-1.2-0.7-1.5-1.5c-0.1-0.4-0.1-0.6-0.2-3.3l0-2.9h-2.3L848.3,49.7
		L848.3,49.7z"/>
</g>
<path class="st1" d="M131.6,50.2c0,0-1-0.6-1.6-0.9c0,0-1.9-0.9-2.2-1.3c0,0-0.7-0.7-0.3-1.5c0,0,0.2-0.5,0.9-0.5c0,0,1,0.1,1,0.9
	l0,1.2l3.6,0l0-1.8c0,0,0.3-2.9-4.2-3c0,0-3.5-0.2-4.5,1.8c0,0-0.4,0.4-0.4,2l0,1.1c0,0,0,1.3,0.6,2.1c0,0,0.4,0.5,1.2,1.1
	c0,0,1.8,1,2.8,1.5c0,0,1.1,0.6,0.9,1.6c0,0-0.1,1-1.1,1c0,0-0.9,0-1-1.1l0-1.2l-3.8,0l0,1.7c0,0-0.1,3.3,4.8,3.3
	c0,0,4.7,0.1,4.9-3.4l0-1.4C133.2,53.5,133.4,51.3,131.6,50.2L131.6,50.2z M113.2,43.8l-1.2,7.8l-0.3,0l-1.2-7.7l-6,0L104.4,58
	l3.5,0l0-10.7l0.3,0l1.9,10.6l3.7,0l1.8-10.6l0.2,0l0.1,10.6l3.5,0l-0.5-14.1L113.2,43.8L113.2,43.8z M92.2,44L90,58l3.8,0l1.3-10.9
	l0.3,0L96.8,58l3.8,0l-2.4-14L92.2,44z M172,49.8l0,2.1l1,0l0,2.2c0,1.1-0.9,1.1-0.9,1.1c-1.1,0-1.1-1-1.1-1l0-7.7
	c0-0.8,1-0.8,1-0.8c0.9,0,0.9,0.9,0.9,0.9l0,1.2l3.6,0c0.1-2.3-0.3-2.8-0.3-2.8c-0.9-2.1-4.3-1.9-4.3-1.9c-5.2,0-4.6,4.1-4.6,4.1
	l0,7.5c0.1,3.9,5.2,3.4,5.3,3.4c2.3-0.3,2.9-1,2.9-1c0.6-0.5,0.8-1.2,0.8-1.2c0.2-0.4,0.2-1.6,0.2-1.6l0-4.4L172,49.8L172,49.8z
	 M160.2,52.2l-0.2,0l-3.7-8.6l-4.4,0l0.1,14.2l3.5,0l-0.3-8.6l0.2,0l3.8,8.6l4.2,0l-0.1-14.2l-3.6,0L160.2,52.2L160.2,52.2z
	 M143.4,54.3c0,0,0.1,1.2-1,1.2c0,0-1.1,0.1-1.1-1.1l-0.1-10.7l-3.9,0l0.1,10.6c0,0-0.4,4,5,4c0,0,4.7,0,4.7-3.8l-0.1-10.7l-3.8,0
	L143.4,54.3L143.4,54.3z M84.9,50.4c0,0-1-0.6-1.6-0.9c0,0-1.9-0.9-2.2-1.3c0,0-0.7-0.7-0.3-1.5c0,0,0.2-0.5,0.9-0.5
	c0,0,1,0.1,1,0.9l0,1.2l3.6,0l0-1.8c0,0,0.3-2.9-4.2-3c0,0-0.3,0-0.8,0c0,0-2.7,0.2-3.7,1.7c0,0,0,0,0,0c0,0-0.4,0.4-0.4,2l0,1.1
	c0,0,0,1.3,0.6,2.1c0,0,0.4,0.5,1.2,1.1c0,0,1.8,1,2.8,1.5c0,0,1.1,0.6,0.9,1.6c0,0-0.1,1-1.1,1c0,0-0.9,0-1-1.1l0-1.2l-3.8,0l0,1.7
	c0,0-0.1,3.3,4.8,3.3c0,0,4.7,0.1,4.9-3.4l0-1.4C86.5,53.7,86.7,51.6,84.9,50.4L84.9,50.4z"/>
<g>
	<path class="st0" d="M646.4,43.9h-3.5v8.5c0,2.2-0.9,3.9-3.4,3.9c-2.5,0-3.2-1.8-3.2-4v-8.4h-3.5v9.3c0,2.7,0.9,6.5,5.8,6.5
		c2.7,0,4-1.3,4.6-2.5v2.1h3.3V43.9 M647.8,59.3h3.5v-8.5c0-2.2,0.9-3.9,3.4-3.9c2.5,0,3.2,1.8,3.2,4.1v8.3h3.5V50
		c0-2.7-0.9-6.5-5.7-6.6c-2.6,0-4,1.3-4.6,2.5c0-0.7,0-1.4,0-2h-3.3V59.3 M662.8,59.3h3.5V43.9h-3.5V59.3z M662.8,41.9h3.5v-3.3
		h-3.5V41.9 M670,59.3h3.5V46.8h2.5l-1-2.8h-1.5v-5.4H670V44h-2.5v2.8h2.5V59.3 M679.5,64.7h3.8l7.8-20.8h-3.8l-3.6,10.2l-3.6-10.2
		h-3.8l5.6,14.8L679.5,64.7 M613.3,51.5l6.4-11.6l3.1,11.6L619.8,63L613.3,51.5z M610.2,53.4l6.4,11.6l-11.2-3l-8.1-8.6H610.2
		L610.2,53.4z M616.6,38l-6.4,11.6h-12.9l8.1-8.6L616.6,38z M625.8,47.6l-3.9-15.2l-14.7,4.1l-2.2,4l-4.4,0l-10.7,11.1l10.7,11.1
		l4.4,0l2.2,4l14.7,4.1l3.9-15.2l-2.2-3.9L625.8,47.6"/>
</g>
<g>
	<title>generated by pstoedit version:3.44 from NVBadge_2D.eps</title>
	<path class="st0" d="M1177.7,75.9c0,0.7-0.5,1.2-1.1,1.2v0c-0.6,0-1.1-0.5-1.1-1.2c0-0.7,0.5-1.2,1.1-1.2
		C1177.2,74.7,1177.7,75.2,1177.7,75.9L1177.7,75.9z M1178.2,75.9c0-1-0.7-1.5-1.5-1.5c-0.8,0-1.5,0.6-1.5,1.5c0,1,0.7,1.5,1.5,1.5
		C1177.5,77.4,1178.2,76.9,1178.2,75.9 M1176.4,76h0.2l0.4,0.7h0.4l-0.4-0.7c0.2,0,0.4-0.1,0.4-0.4c0-0.4-0.3-0.5-0.7-0.5h-0.6v1.7
		h0.4V76 M1176.4,75.8v-0.4h0.2c0.1,0,0.3,0,0.3,0.2c0,0.2-0.1,0.2-0.3,0.2H1176.4 M1167.8,67.4l1.9,5.4h-3.9L1167.8,67.4
		L1167.8,67.4z M1165.8,65.3l-4.4,11.6h3.1l0.7-2.1h5.2l0.7,2.1h3.4l-4.5-11.6L1165.8,65.3L1165.8,65.3z M1156.9,76.9h3.2V65.3
		l-3.2,0L1156.9,76.9z M1134.9,65.3l-2.6,9.2l-2.5-9.2l-3.4,0l3.6,11.6h4.6l3.6-11.6H1134.9L1134.9,65.3z M1147.7,67.8h1.4
		c2,0,3.3,0.9,3.3,3.3c0,2.4-1.3,3.3-3.3,3.3h-1.4V67.8L1147.7,67.8z M1144.6,65.3v11.6h5.1c2.7,0,3.6-0.5,4.6-1.5
		c0.7-0.7,1.1-2.4,1.1-4.2c0-1.6-0.4-3.1-1-4c-1.2-1.6-2.9-1.9-5.4-1.9H1144.6z M1114.6,65.3v11.6h3.2v-8.8l2.5,0
		c0.8,0,1.4,0.2,1.8,0.6c0.5,0.6,0.7,1.4,0.7,3.1v5.1h3.1v-6.4c0-4.6-2.8-5.2-5.6-5.2H1114.6L1114.6,65.3z M1139.5,65.3l0,11.6h3.2
		V65.3H1139.5z"/>
	<path class="st0" d="M1123.1,42.2c0,0,4.1-6.2,12.2-6.9V33c-9,0.8-16.8,8.7-16.8,8.7s4.4,13.3,16.8,14.5v-2.4
		C1126.2,52.6,1123.1,42.2,1123.1,42.2z M1135.3,49v2.2c-6.9-1.3-8.8-8.7-8.8-8.7s3.3-3.8,8.8-4.4v2.4c0,0,0,0,0,0
		c-2.9-0.4-5.1,2.4-5.1,2.4S1131.4,47.6,1135.3,49 M1135.3,28.8V33c0.3,0,0.5,0,0.8,0c10.2-0.4,16.9,8.7,16.9,8.7s-7.7,9.7-15.6,9.7
		c-0.7,0-1.4-0.1-2.1-0.2v2.6c0.6,0.1,1.1,0.1,1.7,0.1c7.4,0,12.8-3.9,18-8.6c0.9,0.7,4.4,2.5,5.1,3.2c-4.9,4.3-16.5,7.8-23,7.8
		c-0.6,0-1.2,0-1.8-0.1v3.6h28.2V28.8L1135.3,28.8L1135.3,28.8z M1135.3,38.1v-2.8c0.3,0,0.5,0,0.8,0c7.4-0.2,12.2,6.6,12.2,6.6
		s-5.2,7.5-10.8,7.5c-0.8,0-1.5-0.1-2.2-0.4v-8.5c2.8,0.4,3.4,1.7,5.1,4.7l3.8-3.4c0,0-2.8-3.8-7.5-3.8
		C1136.3,38,1135.8,38,1135.3,38.1"/>
</g>
<g>
	<path class="st2" d="M318.8-408.8c0-2.2-0.2-3.9-0.5-5.6l-24.6-0.1l0,10.1l14.5,0c-0.3,2.5-1.9,6.3-5.4,8.8l-0.1,0.3l7.8,6.3
		l0.5,0.1C315.9-393.6,318.7-400.5,318.8-408.8"/>
	<path class="st3" d="M293.5-382.3c7.1,0,13-2.4,17.4-6.5l-8.3-6.7c-2.2,1.6-5.2,2.7-9.1,2.7c-6.9,0-12.8-4.8-14.9-11.4l-0.3,0
		l-8.1,6.5l-0.1,0.3C274.4-388.4,283.2-382.3,293.5-382.3"/>
	<path class="st4" d="M278.6-404.2c-0.5-1.7-0.9-3.5-0.9-5.4c0-1.9,0.3-3.7,0.9-5.4l0-0.4l-8.2-6.6l-0.3,0.1
		c-1.8,3.7-2.8,7.8-2.8,12.2s1,8.5,2.8,12.2L278.6-404.2"/>
	<path class="st5" d="M293.6-426.2c4.9,0,8.2,2.2,10.1,4.1l7.4-7.5c-4.5-4.4-10.4-7.1-17.5-7.1c-10.3,0-19.1,6.1-23.5,14.9l8.5,6.9
		C280.8-421.5,286.7-426.2,293.6-426.2"/>
</g>
<g>
	<g>
		<path class="st6" d="M508.4-397.5c-5.4,0-10.4,0.1-11.8,0c-2.9-0.3-4.8-2.2-5-5.1c-0.2-1.9-0.2-3.4,0-4.9c0.3-2.8,2.5-5.4,5-5.6
			c0.9-0.1,3.3,0,7.6,0l12.6,0v-5.4c0,0-10.1,0-13.1,0c-4.1,0-6.1,0-7.4,0c-2.8,0.1-5.2,1.2-7.1,3.1c-1.8,1.8-2.8,4.8-3,7.8
			c-0.1,1.6-0.1,3.7,0,4.9c0.3,3.2,1.3,5.7,3,7.5c1.8,1.9,4.5,3.1,7.1,3.1c2.1,0,20.5,0,20.5,0v-5.4
			C516.8-397.5,511.2-397.5,508.4-397.5L508.4-397.5z M451.4-418.2v5.4h12.5v20.6h5.3v-20.6h12.4v-5.4H451.4z M446-407.9
			c0-2.9-1-5.4-3-7.5c-2-2.1-5.1-3-7.1-3.1c-1.7-0.1-8.6-0.1-10.2,0c-2.3,0.1-3.9,0.8-4.8,1.4c0,0,0,0,0,0v-9.9h-5.3v34.8h5.3
			c0,0-0.1-14.2,0-15.8c0.2-2.8,2.2-4.9,4.8-5.2c2.1-0.2,8.3-0.1,10.2,0c2.7,0.2,4.6,2.4,4.8,5.3c0.1,1.1,0,15.7,0,15.7h5.3
			C446-392.1,446-406.7,446-407.9L446-407.9z"/>
	</g>
</g>
<g>
	<path class="st7" d="M1027.9-410.6v-1.8h-2.2v-2.9l-0.1,0l-2.1,0.7l-0.1,0v2.2h-3.3v-1.2c0-0.6,0.1-1,0.4-1.3
		c0.2-0.3,0.6-0.4,1-0.4c0.3,0,0.6,0.1,1,0.2l0.1,0v-2l0,0c-0.3-0.1-0.7-0.2-1.2-0.2c-0.6,0-1.2,0.1-1.7,0.4
		c-0.5,0.3-0.9,0.7-1.2,1.2c-0.3,0.5-0.4,1.1-0.4,1.8v1.3h-1.5v1.9h1.5v7.8h2.2v-7.8h3.2v4.9c0,2,0.9,3.1,2.8,3.1
		c0.3,0,0.6,0,0.9-0.1c0.3-0.1,0.6-0.1,0.7-0.2l0,0v-1.9l-0.1,0.1c-0.1,0.1-0.3,0.2-0.4,0.2c-0.2,0.1-0.3,0.1-0.4,0.1
		c-0.4,0-0.7-0.1-0.9-0.4c-0.2-0.2-0.3-0.7-0.3-1.2v-4.6H1027.9L1027.9-410.6z M1011.5-404.4c-0.8,0-1.4-0.3-1.9-0.8
		c-0.4-0.5-0.7-1.3-0.7-2.3c0-1,0.2-1.8,0.7-2.4c0.4-0.6,1.1-0.8,1.9-0.8c0.8,0,1.4,0.3,1.8,0.8c0.4,0.5,0.7,1.3,0.7,2.4
		c0,1-0.2,1.8-0.6,2.4C1013-404.7,1012.3-404.4,1011.5-404.4 M1011.6-412.7c-1.5,0-2.7,0.5-3.6,1.4c-0.9,0.9-1.3,2.2-1.3,3.8
		c0,1.5,0.4,2.7,1.3,3.6c0.8,0.9,2,1.3,3.4,1.3c1.5,0,2.7-0.5,3.5-1.4c0.9-0.9,1.3-2.2,1.3-3.7c0-1.5-0.4-2.8-1.2-3.6
		C1014.2-412.2,1013.1-412.7,1011.6-412.7 M1003.1-412.6c-1,0-1.9,0.3-2.6,0.8c-0.7,0.5-1,1.3-1,2.1c0,0.5,0.1,0.9,0.2,1.2
		c0.1,0.3,0.4,0.6,0.7,0.9c0.3,0.3,0.7,0.5,1.3,0.8c0.5,0.2,0.9,0.4,1.1,0.5c0.2,0.1,0.4,0.3,0.5,0.4c0.1,0.1,0.1,0.3,0.1,0.5
		c0,0.6-0.5,1-1.4,1c-0.4,0-0.8-0.1-1.2-0.2c-0.4-0.1-0.9-0.4-1.2-0.7l-0.1-0.1v2.2l0,0c0.3,0.1,0.7,0.3,1.2,0.4
		c0.5,0.1,0.9,0.1,1.2,0.1c1.1,0,2-0.3,2.7-0.8c0.7-0.6,1-1.3,1-2.2c0-0.6-0.2-1.2-0.5-1.7c-0.4-0.4-1-0.9-1.8-1.2
		c-0.7-0.3-1.1-0.5-1.3-0.7c-0.2-0.2-0.3-0.4-0.3-0.7c0-0.3,0.1-0.5,0.3-0.7c0.2-0.2,0.5-0.3,0.9-0.3c0.4,0,0.7,0.1,1.1,0.2
		c0.4,0.1,0.7,0.3,1,0.5l0.1,0.1v-2.1l0,0c-0.3-0.1-0.6-0.2-1-0.3C1003.8-412.6,1003.5-412.6,1003.1-412.6 M993.8-404.4
		c-0.8,0-1.4-0.3-1.9-0.8c-0.4-0.5-0.7-1.3-0.7-2.3c0-1,0.2-1.8,0.7-2.4c0.4-0.6,1.1-0.8,1.9-0.8c0.8,0,1.4,0.3,1.8,0.8
		c0.4,0.5,0.7,1.3,0.7,2.4c0,1-0.2,1.8-0.6,2.4C995.3-404.7,994.6-404.4,993.8-404.4 M993.9-412.7c-1.5,0-2.7,0.5-3.6,1.4
		c-0.9,0.9-1.3,2.2-1.3,3.8c0,1.5,0.4,2.7,1.3,3.6c0.8,0.9,2,1.3,3.4,1.3c1.5,0,2.7-0.5,3.5-1.4c0.9-0.9,1.3-2.2,1.3-3.7
		c0-1.5-0.4-2.8-1.2-3.6C996.5-412.2,995.4-412.7,993.9-412.7 M985.7-410.8v-1.6h-2.2v9.6h2.2v-4.9c0-0.8,0.2-1.5,0.5-2.1
		c0.4-0.5,0.8-0.8,1.4-0.8c0.2,0,0.4,0,0.7,0.1c0.2,0.1,0.4,0.1,0.5,0.2l0.1,0.1v-2.3l0,0c-0.2-0.1-0.5-0.1-0.9-0.1
		c-0.5,0-1,0.2-1.5,0.5C986.2-411.7,985.9-411.3,985.7-410.8L985.7-410.8z M979.6-412.7c-1,0-1.9,0.2-2.7,0.7
		c-0.8,0.4-1.3,1.1-1.8,1.9c-0.4,0.8-0.6,1.7-0.6,2.8c0,0.9,0.2,1.7,0.6,2.5c0.4,0.7,0.9,1.3,1.6,1.7c0.7,0.4,1.5,0.6,2.4,0.6
		c1,0,1.9-0.2,2.6-0.6l0,0v-2.1l-0.1,0.1c-0.3,0.2-0.7,0.4-1.1,0.6c-0.4,0.1-0.7,0.2-1,0.2c-0.9,0-1.5-0.3-2-0.8
		c-0.5-0.5-0.8-1.3-0.8-2.3c0-1,0.3-1.8,0.8-2.4c0.5-0.6,1.2-0.9,2-0.9c0.7,0,1.4,0.3,2.1,0.7l0.1,0.1v-2.2l0,0
		c-0.2-0.1-0.6-0.3-1-0.4C980.4-412.6,980-412.7,979.6-412.7 M973.1-412.4h-2.2v9.6h2.2V-412.4L973.1-412.4z M972-416.5
		c-0.4,0-0.7,0.1-0.9,0.4c-0.3,0.3-0.4,0.6-0.4,0.9c0,0.4,0.1,0.7,0.4,0.9c0.3,0.2,0.6,0.4,0.9,0.4c0.4,0,0.7-0.1,0.9-0.4
		c0.3-0.2,0.4-0.6,0.4-0.9c0-0.4-0.1-0.7-0.4-0.9C972.7-416.4,972.4-416.5,972-416.5 M966.6-413.1v10.3h2.2v-13.4h-3.1l-3.9,10
		l-3.8-10h-3.2v13.4h2.1v-10.3h0.1l4,10.3h1.6L966.6-413.1L966.6-413.1L966.6-413.1z"/>
	<path class="st8" d="M937-410h-10.3v-10.7H937V-410z"/>
	<path class="st9" d="M948.3-410H938v-10.7h10.3V-410L948.3-410z"/>
	<path class="st10" d="M937-398.3h-10.3V-409H937V-398.3z"/>
	<path class="st11" d="M948.3-398.3H938V-409h10.3V-398.3L948.3-398.3z"/>
</g>
<g>
	<path d="M775.7-420.8c-3.4,0.4-6.3,2.2-8.1,5.1c-0.7,1.1-1.3,2.6-1.6,4c-0.2,0.9-0.2,3.4,0,4.3c0.7,3.5,2.8,6.4,5.9,8
		c1.3,0.7,2.4,1,3.9,1.2c0.4,0,3.3,0.1,8.2,0.1c6.4,0,7.7,0,8.3-0.1c2.7-0.4,4.8-1.5,6.6-3.4c0.8-0.9,1.3-1.6,1.9-2.7
		c0.8-1.7,1.2-3.2,1.2-5.2c0-2-0.3-3.5-1.2-5.2c-0.5-1-1-1.8-1.9-2.7c-1.8-1.9-4-3.1-6.6-3.4c-0.6-0.1-1.9-0.1-8.4-0.1
		C779.6-420.9,776-420.8,775.7-420.8L775.7-420.8z M791.9-413.1c1.3,0.4,2.4,1.4,2.7,2.7c0.1,0.5,0.1,1.4,0,1.9
		c-0.3,1.3-1.4,2.3-2.7,2.7c-0.4,0.1-1,0.1-7.9,0.1c-7,0-7.5,0-7.9-0.1c-1.3-0.4-2.2-1.2-2.6-2.4c-0.2-0.4-0.2-0.5-0.2-1.3
		c0-0.7,0-0.8,0.2-1.3c0.5-1.3,1.6-2.2,3-2.4c0.2,0,3.7-0.1,7.7,0C790.9-413.2,791.5-413.2,791.9-413.1L791.9-413.1z M843.7-412v7.5
		h2.3v-15h-2.3V-412z M862.2-414.6c-1,0.2-1.9,0.9-2.3,1.8c-0.2,0.5-0.2,0.5-0.2,1.2c0,0.6,0,0.7,0.2,1.1c0.4,0.8,1.2,1.4,2.6,1.7
		c1.8,0.5,2.2,0.6,2.4,1c0.4,0.7-0.2,1.4-1.4,1.4c-0.9,0.1-1.9-0.2-2.7-0.8c-0.2-0.1-0.4-0.3-0.4-0.3c-0.1,0-0.3,0.2-0.7,0.7
		c-0.3,0.4-0.6,0.8-0.6,0.9c-0.1,0.2,1.6,1.2,2.5,1.4c0.7,0.2,2.3,0.2,3,0c1-0.3,1.8-0.9,2.2-1.8c0.2-0.5,0.2-0.5,0.2-1.3
		c0-0.7,0-0.8-0.2-1.2c-0.4-1-1.3-1.5-3.1-2c-0.6-0.2-1.2-0.4-1.4-0.4c-0.5-0.3-0.7-0.8-0.3-1.2c0.3-0.3,0.7-0.4,1.3-0.4
		c0.6,0,1,0.1,1.7,0.4c0.3,0.2,0.6,0.2,0.6,0.2c0.2-0.2,1-1.5,1-1.5c0-0.1-0.7-0.5-1.2-0.7C864.5-414.7,863.2-414.8,862.2-414.6
		L862.2-414.6z M826.1-414.4c-1.9,0.4-3.1,1.7-3.6,3.6c-0.1,0.4-0.1,0.7-0.1,1.4c0,1,0.1,1.5,0.5,2.4c0.5,1,1.1,1.7,2.1,2.2
		c0.8,0.4,1.2,0.5,2.3,0.5c1.1,0,1.5-0.1,2.3-0.5c0.6-0.3,1.3-0.8,1.3-1c0,0-0.3-0.4-0.8-0.9l-0.8-0.8l-0.4,0.3
		c-1.2,0.9-3,0.6-3.8-0.5c-0.3-0.5-0.5-1-0.5-1.6c0-1.3,0.6-2.2,1.7-2.6c0.8-0.3,1.8-0.1,2.5,0.3c0.1,0.1,0.2,0.1,0.3,0.1
		c0.1,0,1.4-1.7,1.4-1.8c0-0.2-1.2-0.8-1.8-1C828-414.5,826.6-414.5,826.1-414.4L826.1-414.4z M814.7-414.3c-0.3,0.1-0.7,0.3-1,0.4
		c-0.5,0.2-0.7,0.4-1.1,0.9c-0.4,0.4-0.7,0.8-0.8,1c-0.8,1.7-0.8,3.6,0,5.2c0.1,0.3,0.4,0.6,0.8,1c0.5,0.5,0.7,0.7,1.1,0.9
		c0.8,0.4,1.4,0.5,2.3,0.5c0.9,0,1.5-0.1,2.2-0.5c1-0.5,1.6-1.2,2.1-2.2c0.4-0.8,0.5-1.4,0.5-2.4s-0.1-1.5-0.5-2.4
		c-0.5-1-1.2-1.7-2.1-2.2c-0.3-0.2-0.8-0.3-1-0.4C816.4-414.4,815.3-414.4,814.7-414.3L814.7-414.3z M817.1-411.8c1.9,0.9,1.9,4,0,5
		c-0.4,0.2-0.5,0.2-1.1,0.2c-0.7,0-0.7,0-1.1-0.2c-1.3-0.7-1.8-2.4-1.2-3.8C814.3-411.9,815.8-412.4,817.1-411.8z M832.2-411
		c0,2.7,0,3.2,0.1,3.6c0.4,1.6,1.4,2.7,2.9,3c0.7,0.2,1.8,0.1,2.4-0.1c0.5-0.2,0.9-0.4,1.2-0.6c0.1-0.1,0.2-0.2,0.3-0.1
		c0,0,0.1,0.2,0.1,0.4v0.4h2v-9.7h-2.2v2.6c0,1.5,0,2.8-0.1,3.1c-0.2,1.3-1,2-2.3,2c-0.4,0-0.6,0-0.9-0.2c-0.7-0.4-1.1-1-1.2-2.1
		c0-0.3-0.1-1.7-0.1-3v-2.4h-2.3L832.2-411L832.2-411z M848.3-411.3c0,1.7,0.1,3.2,0.1,3.4c0.3,1.8,1.3,3,2.9,3.4
		c1.2,0.3,2.8,0,3.7-0.7l0.3-0.2l0,0.4l0,0.4h2v-9.7h-2.3v2.4c0,3.4-0.1,4-0.6,4.6c-0.6,0.6-1.4,0.9-2.2,0.7
		c-0.7-0.2-1.2-0.7-1.5-1.5c-0.1-0.4-0.1-0.6-0.2-3.3l0-2.9h-2.3L848.3-411.3L848.3-411.3z"/>
</g>
<path class="st12" d="M131.6-410.8c0,0-1-0.6-1.6-0.9c0,0-1.9-0.9-2.2-1.3c0,0-0.7-0.7-0.3-1.5c0,0,0.2-0.5,0.9-0.5c0,0,1,0.1,1,0.9
	l0,1.2l3.6,0l0-1.8c0,0,0.3-2.9-4.2-3c0,0-3.5-0.2-4.5,1.8c0,0-0.4,0.4-0.4,2l0,1.1c0,0,0,1.3,0.6,2.1c0,0,0.4,0.5,1.2,1.1
	c0,0,1.8,1,2.8,1.5c0,0,1.1,0.6,0.9,1.6c0,0-0.1,1-1.1,1c0,0-0.9,0-1-1.1l0-1.2l-3.8,0l0,1.7c0,0-0.1,3.3,4.8,3.3
	c0,0,4.7,0.1,4.9-3.4l0-1.4C133.2-407.5,133.4-409.7,131.6-410.8L131.6-410.8z M113.2-417.2l-1.2,7.8l-0.3,0l-1.2-7.7l-6,0
	l-0.2,14.1l3.5,0l0-10.7l0.3,0l1.9,10.6l3.7,0l1.8-10.6l0.2,0l0.1,10.6l3.5,0l-0.5-14.1L113.2-417.2L113.2-417.2z M92.2-417L90-403
	l3.8,0l1.3-10.9l0.3,0l1.4,10.9l3.8,0l-2.4-14L92.2-417z M172-411.2l0,2.1l1,0l0,2.2c0,1.1-0.9,1.1-0.9,1.1c-1.1,0-1.1-1-1.1-1
	l0-7.7c0-0.8,1-0.8,1-0.8c0.9,0,0.9,0.9,0.9,0.9l0,1.2l3.6,0c0.1-2.3-0.3-2.8-0.3-2.8c-0.9-2.1-4.3-1.9-4.3-1.9
	c-5.2,0-4.6,4.1-4.6,4.1l0,7.5c0.1,3.9,5.2,3.4,5.3,3.4c2.3-0.3,2.9-1,2.9-1c0.6-0.5,0.8-1.2,0.8-1.2c0.2-0.4,0.2-1.6,0.2-1.6l0-4.4
	L172-411.2L172-411.2z M160.2-408.8l-0.2,0l-3.7-8.6l-4.4,0l0.1,14.2l3.5,0l-0.3-8.6l0.2,0l3.8,8.6l4.2,0l-0.1-14.2l-3.6,0
	L160.2-408.8L160.2-408.8z M143.4-406.7c0,0,0.1,1.2-1,1.2c0,0-1.1,0.1-1.1-1.1l-0.1-10.7l-3.9,0l0.1,10.6c0,0-0.4,4,5,4
	c0,0,4.7,0,4.7-3.8l-0.1-10.7l-3.8,0L143.4-406.7L143.4-406.7z M84.9-410.6c0,0-1-0.6-1.6-0.9c0,0-1.9-0.9-2.2-1.3
	c0,0-0.7-0.7-0.3-1.5c0,0,0.2-0.5,0.9-0.5c0,0,1,0.1,1,0.9l0,1.2l3.6,0l0-1.8c0,0,0.3-2.9-4.2-3c0,0-0.3,0-0.8,0
	c0,0-2.7,0.2-3.7,1.7c0,0,0,0,0,0c0,0-0.4,0.4-0.4,2l0,1.1c0,0,0,1.3,0.6,2.1c0,0,0.4,0.5,1.2,1.1c0,0,1.8,1,2.8,1.5
	c0,0,1.1,0.6,0.9,1.6c0,0-0.1,1-1.1,1c0,0-0.9,0-1-1.1l0-1.2l-3.8,0l0,1.7c0,0-0.1,3.3,4.8,3.3c0,0,4.7,0.1,4.9-3.4l0-1.4
	C86.5-407.3,86.7-409.4,84.9-410.6L84.9-410.6z"/>
<g>
	<path class="st13" d="M646.4-417.1h-3.5v8.5c0,2.2-0.9,3.9-3.4,3.9c-2.5,0-3.2-1.8-3.2-4v-8.4h-3.5v9.3c0,2.7,0.9,6.5,5.8,6.5
		c2.7,0,4-1.3,4.6-2.5v2.1h3.3V-417.1 M647.8-401.7h3.5v-8.5c0-2.2,0.9-3.9,3.4-3.9c2.5,0,3.2,1.8,3.2,4.1v8.3h3.5v-9.3
		c0-2.7-0.9-6.5-5.7-6.6c-2.6,0-4,1.3-4.6,2.5c0-0.7,0-1.4,0-2h-3.3V-401.7 M662.8-401.7h3.5v-15.4h-3.5V-401.7z M662.8-419.1h3.5
		v-3.3h-3.5V-419.1 M670-401.7h3.5v-12.5h2.5l-1-2.8h-1.5v-5.4H670v5.4h-2.5v2.8h2.5V-401.7 M679.5-396.3h3.8l7.8-20.8h-3.8
		l-3.6,10.2l-3.6-10.2h-3.8l5.6,14.8L679.5-396.3 M613.3-409.5l6.4-11.6l3.1,11.6l-3.1,11.6L613.3-409.5z M610.2-407.6l6.4,11.6
		l-11.2-3l-8.1-8.6H610.2L610.2-407.6z M616.6-423l-6.4,11.6h-12.9l8.1-8.6L616.6-423z M625.8-413.4l-3.9-15.2l-14.7,4.1l-2.2,4
		l-4.4,0l-10.7,11.1l10.7,11.1l4.4,0l2.2,4l14.7,4.1l3.9-15.2l-2.2-3.9L625.8-413.4"/>
</g>
<g>
	<title>generated by pstoedit version:3.44 from NVBadge_2D.eps</title>
	<path d="M1177.7-385.1c0,0.7-0.5,1.2-1.1,1.2v0c-0.6,0-1.1-0.5-1.1-1.2c0-0.7,0.5-1.2,1.1-1.2
		C1177.2-386.3,1177.7-385.8,1177.7-385.1L1177.7-385.1z M1178.2-385.1c0-1-0.7-1.5-1.5-1.5c-0.8,0-1.5,0.6-1.5,1.5
		c0,1,0.7,1.5,1.5,1.5C1177.5-383.6,1178.2-384.1,1178.2-385.1 M1176.4-385h0.2l0.4,0.7h0.4l-0.4-0.7c0.2,0,0.4-0.1,0.4-0.4
		c0-0.4-0.3-0.5-0.7-0.5h-0.6v1.7h0.4V-385 M1176.4-385.2v-0.4h0.2c0.1,0,0.3,0,0.3,0.2c0,0.2-0.1,0.2-0.3,0.2H1176.4 M1167.8-393.6
		l1.9,5.4h-3.9L1167.8-393.6L1167.8-393.6z M1165.8-395.7l-4.4,11.6h3.1l0.7-2.1h5.2l0.7,2.1h3.4l-4.5-11.6L1165.8-395.7
		L1165.8-395.7z M1156.9-384.1h3.2v-11.6l-3.2,0L1156.9-384.1z M1134.9-395.7l-2.6,9.2l-2.5-9.2l-3.4,0l3.6,11.6h4.6l3.6-11.6
		H1134.9L1134.9-395.7z M1147.7-393.2h1.4c2,0,3.3,0.9,3.3,3.3c0,2.4-1.3,3.3-3.3,3.3h-1.4V-393.2L1147.7-393.2z M1144.6-395.7v11.6
		h5.1c2.7,0,3.6-0.5,4.6-1.5c0.7-0.7,1.1-2.4,1.1-4.2c0-1.6-0.4-3.1-1-4c-1.2-1.6-2.9-1.9-5.4-1.9H1144.6z M1114.6-395.7v11.6h3.2
		v-8.8l2.5,0c0.8,0,1.4,0.2,1.8,0.6c0.5,0.6,0.7,1.4,0.7,3.1v5.1h3.1v-6.4c0-4.6-2.8-5.2-5.6-5.2H1114.6L1114.6-395.7z
		 M1139.5-395.7l0,11.6h3.2v-11.6H1139.5z"/>
	<path class="st14" d="M1123.1-418.8c0,0,4.1-6.2,12.2-6.9v-2.3c-9,0.8-16.8,8.7-16.8,8.7s4.4,13.3,16.8,14.5v-2.4
		C1126.2-408.4,1123.1-418.8,1123.1-418.8z M1135.3-412v2.2c-6.9-1.3-8.8-8.7-8.8-8.7s3.3-3.8,8.8-4.4v2.4c0,0,0,0,0,0
		c-2.9-0.4-5.1,2.4-5.1,2.4S1131.4-413.4,1135.3-412 M1135.3-432.2v4.2c0.3,0,0.5,0,0.8,0c10.2-0.4,16.9,8.7,16.9,8.7
		s-7.7,9.7-15.6,9.7c-0.7,0-1.4-0.1-2.1-0.2v2.6c0.6,0.1,1.1,0.1,1.7,0.1c7.4,0,12.8-3.9,18-8.6c0.9,0.7,4.4,2.5,5.1,3.2
		c-4.9,4.3-16.5,7.8-23,7.8c-0.6,0-1.2,0-1.8-0.1v3.6h28.2v-30.9H1135.3L1135.3-432.2z M1135.3-422.9v-2.8c0.3,0,0.5,0,0.8,0
		c7.4-0.2,12.2,6.6,12.2,6.6s-5.2,7.5-10.8,7.5c-0.8,0-1.5-0.1-2.2-0.4v-8.5c2.8,0.4,3.4,1.7,5.1,4.7l3.8-3.4c0,0-2.8-3.8-7.5-3.8
		C1136.3-423,1135.8-423,1135.3-422.9"/>
</g>
</svg>
